<svg width="521" height="166" viewBox="0 0 521 166" fill="none" xmlns="http://www.w3.org/2000/svg">
<path fill-rule="evenodd" clip-rule="evenodd" d="M326.421 1.38936C361.784 3.33136 405.953 7.51536 438.421 11.9984C455.713 14.3864 480.126 18.4184 483.421 19.4304C485.071 19.9374 487.996 20.5794 489.921 20.8564C493.506 21.3724 506.698 23.9364 510.593 24.8754C513.167 25.4954 514.06 27.9714 516.915 42.3994C520.244 59.2224 521.519 81.8694 520.143 99.7294C518.97 114.945 515.481 137.225 514.044 138.671C512.958 139.764 483.498 145.748 463.921 148.853C454.846 150.292 445.621 151.911 443.421 152.45C439.042 153.522 410.992 157.19 401.421 157.942C398.121 158.201 386.196 159.312 374.921 160.41C341.551 163.66 324.028 164.464 273.421 165.067C225.568 165.637 215.894 165.345 165.421 161.804C145.528 160.408 106.583 156.405 94.145 154.477C62.381 149.554 46.557 146.835 24.421 142.498C18.921 141.42 12.777 140.27 10.768 139.942C6.54895 139.252 6.55295 139.26 3.96095 126.85C-1.47305 100.829 -1.28005 49.6364 4.31895 31.9514C5.27295 28.9384 6.26195 27.8024 8.49495 27.1554C13.539 25.6914 43.181 19.6124 48.421 18.9664C51.171 18.6274 57.021 17.7044 61.421 16.9144C75.122 14.4534 110.58 9.54837 129.921 7.43737C140.096 6.32637 152.021 4.97537 156.421 4.43537C165.157 3.36137 223.608 0.503368 244.421 0.131368C267.615 -0.282632 306.965 0.321364 326.421 1.38936ZM209.421 8.40336C199.521 8.79836 184.896 9.63937 176.921 10.2724C168.946 10.9044 158.162 11.6594 152.958 11.9484C147.753 12.2374 138.753 13.1514 132.958 13.9794C127.162 14.8064 116.346 16.3384 108.921 17.3834C65.597 23.4784 57.768 24.6374 51.421 25.8954C39.961 28.1684 15.833 32.5454 13.247 32.8214C11.925 32.9614 10.413 33.5074 9.88595 34.0344C7.96095 35.9594 3.40495 74.9724 4.90595 76.6864C5.28495 77.1194 10.256 77.3444 15.954 77.1864L26.313 76.8994L30.235 61.1494L34.158 45.3994H41.001H47.844L48.847 49.1494C50.218 54.2774 59.921 95.2144 59.921 95.8714C59.921 96.1614 57.478 96.3994 54.492 96.3994H49.063L47.921 90.8994L46.779 85.3994H40.889H34.998L33.91 89.6494C33.312 91.9874 32.634 94.4624 32.403 95.1494C32.14 95.9334 30.065 96.3994 26.841 96.3994H21.698L22.363 92.6494C22.729 90.5874 23.259 88.1124 23.542 87.1494C24.006 85.5684 23.129 85.3994 14.488 85.3994H4.92095V91.3594C4.92095 98.0764 8.49895 125.224 10.022 130.061C10.871 132.755 11.714 133.384 15.719 134.313C28.144 137.196 74.214 144.967 87.421 146.409C91.821 146.889 102.621 148.191 111.421 149.303C120.221 150.414 135.521 152.006 145.421 152.841C155.321 153.676 167.246 154.824 171.921 155.392C180.088 156.384 228.559 158.35 245.68 158.383L253.939 158.399L253.68 105.744L253.421 53.0904L247.921 52.9944L242.421 52.8994L242.111 49.1494L241.8 45.3994H259.421H277.042L276.731 49.1494L276.421 52.8994L270.171 53.1974L263.921 53.4944V106.098V158.702L292.171 158.102C322.169 157.466 383.069 153.35 398.921 150.887C411.822 148.883 429.042 146.397 436.921 145.401C440.496 144.949 452.421 143.002 463.421 141.073C474.421 139.144 486.672 137.076 490.646 136.477C502.733 134.656 507.649 133.357 509.283 131.552C511.783 128.789 514.047 112.341 514.639 92.6494L515.187 74.3994H498.126H481.065L480.38 79.8834C479.345 88.1664 479.578 88.3994 488.89 88.3994H496.921V92.3994V96.3994H483.421H469.921V70.8994V45.3994H483.481H497.042L496.731 49.1494L496.421 52.8994L488.421 53.0324L480.421 53.1654V60.0324V66.8994L497.671 67.1734L514.921 67.4464L514.915 65.1734C514.907 61.9634 512.166 43.8364 510.822 38.0994C510.125 35.1234 508.885 32.7954 507.559 31.9734C505.751 30.8524 489.834 27.5034 479.421 26.0524C477.771 25.8224 468.996 24.4204 459.921 22.9364C422.379 16.7964 383.115 12.3234 344.421 9.77936C316.927 7.97136 239.891 7.18536 209.421 8.40336ZM85.334 48.1494C85.895 50.8424 90.815 80.8254 91.031 82.8644C91.091 83.4334 91.7009 80.0744 92.3859 75.3994C93.0709 70.7244 94.656 62.0614 95.907 56.1494L98.182 45.3994H106.551H114.921V70.8994V96.3994H110.421H105.921L105.835 75.1494L105.75 53.8994L101.465 73.5904C99.109 84.4204 96.911 93.9824 96.582 94.8404C96.144 95.9824 94.56 96.3994 90.665 96.3994H85.346L81.225 76.6494L77.1049 56.8994L77.013 76.6494L76.921 96.3994H71.921H66.921V70.8994V45.3994H75.8419H84.762L85.334 48.1494ZM151.359 46.5534C154.576 48.0184 157.921 54.8584 157.919 59.9654C157.916 68.8604 152.289 74.1934 141.915 75.1334L135.921 75.6774V86.0884V96.4994L130.171 96.1994L124.421 95.8994L124.152 71.9194C124.005 58.7304 124.103 47.3674 124.371 46.6694C125.013 44.9964 147.729 44.8994 151.359 46.5534ZM176.135 55.1494L176.421 64.8994L181.671 65.2014L186.921 65.5044V55.4514V45.3994H191.921H196.921V70.8994V96.3994H191.921H186.921V84.8994V73.3994H181.421H175.921V84.8994V96.3994H170.921H165.921V70.8994V45.3994H170.885H175.849L176.135 55.1494ZM234.731 49.1494L234.421 52.8994L227.171 53.1934L219.921 53.4874V59.3974V65.3084L226.671 65.6034L233.421 65.8994V69.3994V72.8994L226.671 73.1954L219.921 73.4904V80.9454V88.3994H227.421H234.921V92.4294V96.4594L222.418 96.1794C215.541 96.0254 209.916 95.5614 209.918 95.1494C209.92 94.7374 209.921 83.3744 209.921 69.8994V45.3994H222.481H235.042L234.731 49.1494ZM315.6 67.3654C318.47 79.1714 321.11 90.5584 321.467 92.6704L322.116 96.5104L316.773 96.2054L311.43 95.8994L310.031 90.6494L308.632 85.3994H302.847H297.063L295.921 90.8994L294.779 96.3994H289.35C286.145 96.3994 283.921 95.9594 283.921 95.3244C283.921 94.7334 286.698 83.2404 290.091 69.7844L296.262 45.3184L303.322 45.6094L310.382 45.8994L315.6 67.3654ZM353.341 54.5494C354.262 59.5824 355.656 67.9694 356.439 73.1874C357.223 78.4054 358.036 82.8474 358.247 83.0584C358.457 83.2694 358.92 80.3194 359.275 76.5044C359.629 72.6884 361.045 64.3614 362.42 58.0004C363.796 51.6384 364.921 46.2004 364.921 45.9164C364.921 45.6324 368.746 45.3994 373.421 45.3994H381.921V70.8994V96.3994H377.421H372.921L372.842 75.1494L372.763 53.8994L369.334 69.3994C367.448 77.9244 365.327 87.3744 364.622 90.3994L363.339 95.8994L358.119 96.2024C354.491 96.4124 352.744 96.1024 352.392 95.1844C352.114 94.4584 350.133 85.7724 347.991 75.8824L344.096 57.8994L344.009 77.1494L343.921 96.3994H338.921H333.921V70.8994V45.3994H342.794H351.667L353.341 54.5494ZM404.921 70.9514V96.5044L399.671 96.2014L394.421 95.8994L394.152 71.9194C394.005 58.7304 394.103 47.3674 394.371 46.6694C394.675 45.8754 396.745 45.3994 399.89 45.3994H404.921V70.9514ZM437.346 52.6494C438.205 56.6374 440.047 65.2724 441.438 71.8404C442.83 78.4074 444.238 84.0324 444.567 84.3404C444.896 84.6474 444.997 76.1244 444.793 65.3994L444.421 45.8994L448.671 45.5924L452.921 45.2844V70.8424V96.3994H446.094H439.268L436.122 85.1494C434.392 78.9624 432.298 70.3464 431.469 66.0024C430.64 61.6594 429.84 57.9844 429.691 57.8364C429.543 57.6874 429.582 66.3294 429.778 77.0414L430.135 96.5174L425.278 96.2084L420.421 95.8994L420.152 71.9194C420.005 58.7304 420.103 47.3674 420.371 46.6694C420.705 45.7994 423.211 45.3994 428.321 45.3994H435.785L437.346 52.6494ZM135.921 60.3994V67.3994H139.299C143.266 67.3994 144.81 65.8574 145.578 61.1254C146.436 55.8414 144.636 53.3994 139.886 53.3994H135.921V60.3994ZM39.093 63.1494C38.414 67.4114 37.597 72.3624 37.276 74.1494C36.695 77.3944 36.7 77.3994 40.916 77.3994C44.792 77.3994 45.092 77.2154 44.584 75.1494C44.279 73.9114 43.465 68.9624 42.775 64.1494C42.085 59.3374 41.252 55.3994 40.924 55.3994C40.596 55.3994 39.773 58.8874 39.093 63.1494ZM303.003 55.4014C302.958 55.6774 302.021 60.6264 300.921 66.3994C299.821 72.1724 298.921 77.0084 298.921 77.1474C298.921 77.2864 300.721 77.3994 302.921 77.3994C305.121 77.3994 306.905 77.0614 306.885 76.6494C306.822 75.3194 303.088 54.8814 303.003 55.4014ZM485.576 105.527C486.316 106.141 486.921 107.264 486.921 108.021C486.921 109.956 483.213 109.743 482.094 107.745C481.537 106.749 480.522 106.338 479.545 106.713C476.967 107.702 477.606 108.736 482.354 111.254C487.581 114.027 488.523 115.831 486.421 119.04C485.179 120.934 483.997 121.399 480.421 121.399C476.734 121.399 475.675 120.954 474.273 118.814C472.896 116.712 472.828 116.075 473.909 115.406C475.648 114.332 477.921 115.238 477.921 117.006C477.921 117.825 478.951 118.399 480.421 118.399C483.981 118.399 483.516 116.8 479.156 114.048C474.242 110.945 472.738 109.041 473.543 106.942C474.852 103.531 482.138 102.675 485.576 105.527ZM45.683 105.649C46.237 106.337 46.704 109.374 46.721 112.399C46.739 115.424 46.903 118.563 47.087 119.375C47.288 120.263 46.551 120.985 45.239 121.186C43.416 121.465 43.004 120.975 42.739 118.21C42.494 115.657 41.906 114.826 40.171 114.579C38.198 114.299 37.921 114.7 37.921 117.829C37.921 120.732 37.547 121.399 35.921 121.399C34.078 121.399 33.921 120.732 33.921 112.899V104.399H39.299C42.397 104.399 45.103 104.929 45.683 105.649ZM78.421 105.899C78.421 106.449 76.958 107.04 75.171 107.212C72.731 107.448 71.921 108.008 71.921 109.462C71.921 110.948 72.62 111.399 74.921 111.399C76.571 111.399 77.921 111.849 77.921 112.399C77.921 112.949 76.571 113.399 74.921 113.399C72.408 113.399 71.921 113.795 71.921 115.836C71.921 117.84 72.4839 118.328 75.0939 118.586C76.8389 118.758 78.46 119.485 78.695 120.202C79.021 121.195 77.7299 121.433 73.2719 121.202L67.421 120.899L67.1219 113.998C66.7099 104.505 66.883 104.235 73.16 104.596C76.053 104.763 78.421 105.349 78.421 105.899ZM111.721 105.599C114.944 108.822 111.856 114.399 106.85 114.399C104.169 114.399 103.921 114.696 103.921 117.899C103.921 120.732 103.54 121.399 101.921 121.399C100.078 121.399 99.921 120.732 99.921 112.899V104.399H105.221C108.136 104.399 111.061 104.939 111.721 105.599ZM145.921 105.899C145.921 106.732 145.032 107.399 143.921 107.399C141.836 107.399 141.633 108.191 141.488 116.899C141.432 120.261 141.062 120.95 139.171 121.219C137.02 121.524 136.921 121.228 136.921 114.469C136.921 108.066 136.732 107.399 134.921 107.399C133.81 107.399 132.921 106.732 132.921 105.899C132.921 104.72 134.31 104.399 139.421 104.399C144.532 104.399 145.921 104.72 145.921 105.899ZM170.921 112.899C170.921 120.616 170.744 121.399 169 121.399C167.305 121.399 167.04 120.515 166.75 113.876C166.361 104.984 166.5 104.399 169.004 104.399C170.743 104.399 170.921 105.189 170.921 112.899ZM195.715 111.599C196.01 118.277 196.011 118.279 199.138 118.589C200.859 118.759 202.46 119.485 202.695 120.202C203.021 121.195 201.73 121.433 197.272 121.202L191.421 120.899L191.122 113.998C190.773 105.949 191.266 104.127 193.668 104.585C195.093 104.857 195.476 106.168 195.715 111.599ZM233.677 105.649C233.452 106.337 231.839 107.04 230.094 107.212C227.73 107.446 226.921 108.02 226.921 109.462C226.921 110.948 227.62 111.399 229.921 111.399C233.682 111.399 233.883 113.155 230.171 113.583C228.202 113.809 227.33 114.538 227.101 116.149C226.821 118.122 227.222 118.399 230.351 118.399C232.858 118.399 233.921 118.846 233.921 119.899C233.921 121.048 232.652 121.399 228.5 121.399H223.079L222.75 113.876C222.569 109.738 222.571 105.913 222.754 105.376C222.938 104.839 225.563 104.399 228.588 104.399C232.54 104.399 233.972 104.751 233.677 105.649ZM296.916 105.893C297.598 106.715 297.946 108.489 297.688 109.835C297.431 111.182 297.532 114.334 297.912 116.841C298.562 121.12 298.465 121.399 296.326 121.399C294.487 121.399 293.987 120.773 293.734 118.149C293.494 115.658 292.896 114.824 291.171 114.579C289.198 114.299 288.921 114.7 288.921 117.829C288.921 120.732 288.547 121.399 286.921 121.399C285.078 121.399 284.921 120.732 284.921 112.899V104.399H290.299C293.849 104.399 296.097 104.907 296.916 105.893ZM327.183 105.899C327.314 106.449 325.706 107.04 323.61 107.213C318.663 107.621 318.717 110.733 323.679 111.212C327.874 111.618 327.869 113.181 323.671 113.586C321.212 113.823 320.345 114.431 320.11 116.085C319.843 117.962 320.337 118.315 323.61 118.585C329.273 119.052 327.771 120.854 321.433 121.199L315.921 121.499V112.899V104.299L321.433 104.599C324.464 104.764 327.051 105.349 327.183 105.899ZM359.296 106.621C360.086 107.882 360.05 108.67 359.162 109.558C358.209 110.511 357.459 110.328 355.684 108.713C352.276 105.612 350.921 106.796 350.921 112.875C350.921 118.68 352.996 120.996 354.941 117.362C356.281 114.858 359.921 114.739 359.921 117.199C359.921 120.076 357.832 121.399 353.292 121.399C347.593 121.399 345.921 119.529 345.921 113.156C345.921 106.285 347.827 104.206 353.766 104.602C356.65 104.795 358.596 105.505 359.296 106.621ZM390.997 105.991C392.763 108.119 392.799 117.631 391.049 119.743C390.123 120.86 388.128 121.399 384.921 121.399C378.855 121.399 377.405 119.731 377.472 112.835C377.539 105.978 378.933 104.399 384.921 104.399C388.05 104.399 390.128 104.943 390.997 105.991ZM422.35 105.97C424.151 107.772 424.358 109.562 422.931 110.989C422.277 111.643 422.277 113.153 422.931 115.433C424.412 120.599 424.199 121.578 421.671 121.219C419.946 120.974 419.348 120.14 419.108 117.649C418.848 114.957 418.376 114.399 416.358 114.399C414.24 114.399 413.921 114.857 413.921 117.899C413.921 120.732 413.54 121.399 411.921 121.399C410.078 121.399 409.921 120.732 409.921 112.899V104.399H415.35C418.951 104.399 421.307 104.928 422.35 105.97ZM454.35 105.97C455.353 106.974 455.921 109.323 455.921 112.47C455.921 119.414 453.59 121.602 446.62 121.2L441.421 120.899L441.131 112.649L440.84 104.399H446.809C450.902 104.399 453.272 104.893 454.35 105.97ZM383.121 107.599C381.397 109.323 381.607 116.894 383.421 118.399C384.618 119.392 385.224 119.392 386.421 118.399C389.159 116.127 387.943 106.399 384.921 106.399C384.591 106.399 383.781 106.939 383.121 107.599ZM37.921 109.469C37.921 111.04 38.46 111.461 40.161 111.219C43.485 110.744 43.777 107.399 40.494 107.399C38.559 107.399 37.921 107.912 37.921 109.469ZM103.921 109.399C103.921 111.045 104.439 111.464 106.171 111.219C107.408 111.043 108.421 110.224 108.421 109.399C108.421 108.574 107.408 107.755 106.171 107.579C104.439 107.334 103.921 107.753 103.921 109.399ZM288.921 109.469C288.921 111.04 289.46 111.461 291.161 111.219C294.485 110.744 294.777 107.399 291.494 107.399C289.559 107.399 288.921 107.912 288.921 109.469ZM413.921 109.469C413.921 111.04 414.46 111.461 416.161 111.219C419.485 110.744 419.777 107.399 416.494 107.399C414.559 107.399 413.921 107.912 413.921 109.469ZM445.921 112.969C445.921 118.124 446.083 118.514 448.104 118.219C450.575 117.857 451.975 114.131 451.188 110.013C450.815 108.065 450.08 107.399 448.304 107.399C446.078 107.399 445.921 107.767 445.921 112.969Z" fill="black"/>
</svg>
