<svg width="542" height="382" viewBox="0 0 542 382" fill="none" xmlns="http://www.w3.org/2000/svg">
<g filter="url(#filter0_d_841_1352)">
<path fill-rule="evenodd" clip-rule="evenodd" d="M4.76001 0.751007C4.51901 1.16401 4.25001 27.713 4.16101 59.751L4 118.001H20.198H36.397L35.772 95.001L35.146 72.001H60.113H85.079L85.08 59.751L85.081 47.501L60.58 47.785L36.079 48.069V35.535V23.001H63.579H91.079V11.501V0.00100708H48.138C24.52 0.00100708 5.00001 0.338007 4.76001 0.751007ZM100.079 41.365C100.079 65.112 100.511 85.022 101.093 88.115C105.202 109.941 123.66 121.962 153.079 121.969C179.476 121.975 194.603 112.399 200.465 91.971C201.761 87.455 202.082 78.961 202.307 43.251L202.579 0L186.37 0.00100708H170.162L169.87 41.751C169.594 81.416 169.479 83.671 167.579 86.896C164.259 92.533 160.874 94.391 153.126 94.829C147.321 95.157 145.587 94.853 142.109 92.897C139.838 91.621 136.99 88.985 135.78 87.039C133.617 83.562 133.574 82.779 133.288 41.751L132.996 0.00100708H116.538H100.079V41.365ZM214.079 59.001V118.001H256.079H298.079V106.518V95.035L272.829 94.768L247.579 94.501L247.319 47.251L247.059 0.00100708H230.569H214.079V59.001ZM306.079 59.001V118.001H348.611H391.142L390.861 106.399L390.579 94.798L365.829 94.946L341.079 95.093V47.547V0.00100708H323.579H306.079V59.001ZM4.30099 144.501L4.03702 156.001H20.058H36.079V201.001V246.001H51.579H67.079V201.001V156.001H83.079H99.079V144.501V133.001H51.822H4.565L4.30099 144.501ZM108.079 189.501V246.001H123.579H139.079V189.501V133.001H123.579H108.079V189.501ZM150.079 189.501V246.001H164.068H178.057L178.318 204.251L178.579 162.501L188.386 197.001C193.78 215.976 199.133 234.764 200.282 238.751L202.37 246.001H216.555H230.74L238.029 219.751C242.039 205.314 247.047 187.032 249.159 179.125C251.271 171.218 253.242 164.505 253.539 164.208C253.836 163.911 254.079 182.193 254.079 204.834V246.001H268.579H283.079V189.501V133.001H260.118H237.156L236.151 136.751C235.598 138.814 231.328 155.291 226.662 173.368C221.995 191.445 217.973 206.44 217.723 206.69C217.474 206.94 216.955 205.649 216.571 203.823C215.898 200.625 199.584 138.327 198.483 134.751C197.99 133.148 195.933 133.001 174.012 133.001H150.079V189.501ZM294.472 134.583C294.806 135.453 295.079 160.878 295.079 191.083V246.001H339.579H384.079V235.001V224.001H354.579H325.079V212.001V200.001H351.579H378.079V188.501V177.001H351.579H325.079V166.501V156.001H353.579H382.079V144.501V133.001H337.972C298.163 133.001 293.924 133.155 294.472 134.583ZM186.285 260.558C167.386 265.645 154.135 279.698 149.535 299.534C147.507 308.277 147.494 325.773 149.508 334.398C155.335 359.351 176.089 374.046 205.417 373.984C234.39 373.922 254.697 359.02 260.622 333.472C262.637 324.784 262.611 308.108 260.57 299.307C256.098 280.025 241.162 265.062 221.839 260.507C213.777 258.606 193.428 258.635 186.285 260.558ZM460.976 260.528C451.267 262.885 444.041 266.941 437.059 273.953C426.323 284.734 421.058 299.001 421.096 317.209C421.17 352.46 443.876 374.057 480.787 373.984C498.279 373.949 513.623 368.413 523.441 358.595C528.954 353.083 533.505 344.83 534.6 338.364C534.959 336.239 535.47 333.713 535.734 332.751C536.176 331.139 534.996 331.001 520.805 331.001H505.396L504.211 334.956C499.453 350.837 475.261 355.235 462.555 342.53C456.044 336.018 453.686 327.508 454.283 312.668C454.667 303.106 455.127 300.674 457.481 295.744C461.865 286.567 469.454 281.997 480.297 282.007C483.752 282.01 488.253 282.477 490.298 283.045C497.172 284.954 502.757 291.507 504.536 299.751L505.238 303.001H520.158C537.337 303.001 536.446 303.703 533.537 292.461C529.404 276.492 517.202 265.337 498.619 260.54C491.131 258.607 468.918 258.6 460.976 260.528ZM5.07901 315.954V371.001H40.058C72.861 371.001 75.434 370.871 81.415 368.907C90.406 365.956 96.866 360.77 100.561 353.537C103.192 348.388 103.576 346.596 103.552 339.566C103.531 333.262 103.052 330.607 101.361 327.406C98.555 322.097 93.147 317.401 88.096 315.888C85.886 315.226 84.084 314.418 84.09 314.093C84.097 313.767 85.973 312.604 88.261 311.507C92.805 309.329 97.311 303.857 99.15 298.285C99.834 296.212 100.127 291.658 99.853 287.375C99.269 278.285 95.814 272.043 88.727 267.278C80.511 261.754 79.477 261.624 40.829 261.251L5.07901 260.907V315.954ZM110.527 316.001L110.579 371H125.579H140.579L140.74 316.001L140.9 261.001H125.688H110.476L110.527 316.001ZM268.079 315.978V371.001H281.579H295.079L295.09 334.751L295.101 298.501L300.36 308.001C303.252 313.226 312.109 329.539 320.042 344.251L334.465 371.001H351.772H369.079V316.001V261.001H355.493H341.908L342.243 297.501C342.428 317.577 342.508 334.002 342.421 334.001C342.165 334.001 319.844 292.479 309.092 272.001L303.579 261.501L285.829 261.228L268.079 260.955V315.978ZM382.079 316.001V371.001H397.079H412.079V316.001V261.001H397.079H382.079V316.001ZM68.164 285.767C73.676 291.942 71.192 300.718 63.275 303.035C61.222 303.635 54.245 303.979 47.579 303.809L35.579 303.501L35.294 292.678L35.01 281.856L50.129 282.178L65.248 282.501L68.164 285.767ZM217.366 285.627C222.604 289.297 227.625 297.497 229.159 304.884C229.814 308.039 230.115 314.508 229.847 319.643C228.974 336.335 222.104 346.285 209.505 349.105C200.616 351.094 193.845 349.097 187.579 342.639C181.393 336.263 179.06 330.254 178.353 318.882C177.293 301.841 183.27 288.406 194.079 283.534C196.591 282.402 199.778 282.058 205.366 282.315C212.048 282.624 213.752 283.094 217.366 285.627ZM66.533 325.417C71.11 327.33 73.409 331.116 73.326 336.604C73.174 346.699 68.678 349.001 49.111 349.001H35.079V336.501V324.001H49.111C58.954 324.001 64.155 324.424 66.533 325.417Z" fill="white"/>
</g>
<path fill-rule="evenodd" clip-rule="evenodd" d="M10.76 8.75101C10.519 9.16401 10.25 35.713 10.161 67.751L10 126.001H26.198H42.397L41.772 103.001L41.146 80.001H66.113H91.079L91.08 67.751L91.081 55.501L66.58 55.785L42.079 56.069V43.535V31.001H69.579H97.079V19.501V8.00101H54.138C30.52 8.00101 11 8.33801 10.76 8.75101ZM106.079 49.365C106.079 73.112 106.511 93.022 107.093 96.115C111.202 117.941 129.66 129.962 159.079 129.969C185.476 129.975 200.603 120.399 206.465 99.971C207.761 95.455 208.082 86.961 208.307 51.251L208.579 8L192.37 8.00101H176.162L175.87 49.751C175.594 89.416 175.479 91.671 173.579 94.896C170.259 100.533 166.874 102.391 159.126 102.829C153.321 103.157 151.587 102.853 148.109 100.897C145.838 99.621 142.99 96.985 141.78 95.039C139.617 91.562 139.574 90.779 139.288 49.751L138.996 8.00101H122.538H106.079V49.365ZM220.079 67.001V126.001H262.079H304.079V114.518V103.035L278.829 102.768L253.579 102.501L253.319 55.251L253.059 8.00101H236.569H220.079V67.001ZM312.079 67.001V126.001H354.611H397.142L396.861 114.399L396.579 102.798L371.829 102.946L347.079 103.093V55.547V8.00101H329.579H312.079V67.001ZM10.301 152.501L10.037 164.001H26.058H42.079V209.001V254.001H57.579H73.079V209.001V164.001H89.079H105.079V152.501V141.001H57.822H10.565L10.301 152.501ZM114.079 197.501V254.001H129.579H145.079V197.501V141.001H129.579H114.079V197.501ZM156.079 197.501V254.001H170.068H184.057L184.318 212.251L184.579 170.501L194.386 205.001C199.78 223.976 205.133 242.764 206.282 246.751L208.37 254.001H222.555H236.74L244.029 227.751C248.039 213.314 253.047 195.032 255.159 187.125C257.271 179.218 259.242 172.505 259.539 172.208C259.836 171.911 260.079 190.193 260.079 212.834V254.001H274.579H289.079V197.501V141.001H266.118H243.156L242.151 144.751C241.598 146.814 237.328 163.291 232.662 181.368C227.995 199.445 223.973 214.44 223.723 214.69C223.474 214.94 222.955 213.649 222.571 211.823C221.898 208.625 205.584 146.327 204.483 142.751C203.99 141.148 201.933 141.001 180.012 141.001H156.079V197.501ZM300.472 142.583C300.806 143.453 301.079 168.878 301.079 199.083V254.001H345.579H390.079V243.001V232.001H360.579H331.079V220.001V208.001H357.579H384.079V196.501V185.001H357.579H331.079V174.501V164.001H359.579H388.079V152.501V141.001H343.972C304.163 141.001 299.924 141.155 300.472 142.583ZM192.285 268.558C173.386 273.645 160.135 287.698 155.535 307.534C153.507 316.277 153.494 333.773 155.508 342.398C161.335 367.351 182.089 382.046 211.417 381.984C240.39 381.922 260.697 367.02 266.622 341.472C268.637 332.784 268.611 316.108 266.57 307.307C262.098 288.025 247.162 273.062 227.839 268.507C219.777 266.606 199.428 266.635 192.285 268.558ZM466.976 268.528C457.267 270.885 450.041 274.941 443.059 281.953C432.323 292.734 427.058 307.001 427.096 325.209C427.17 360.46 449.876 382.057 486.787 381.984C504.279 381.949 519.623 376.413 529.441 366.595C534.954 361.083 539.505 352.83 540.6 346.364C540.959 344.239 541.47 341.713 541.734 340.751C542.176 339.139 540.996 339.001 526.805 339.001H511.396L510.211 342.956C505.453 358.837 481.261 363.235 468.555 350.53C462.044 344.018 459.686 335.508 460.283 320.668C460.667 311.106 461.127 308.674 463.481 303.744C467.865 294.567 475.454 289.997 486.297 290.007C489.752 290.01 494.253 290.477 496.298 291.045C503.172 292.954 508.757 299.507 510.536 307.751L511.238 311.001H526.158C543.337 311.001 542.446 311.703 539.537 300.461C535.404 284.492 523.202 273.337 504.619 268.54C497.131 266.607 474.918 266.6 466.976 268.528ZM11.079 323.954V379.001H46.058C78.861 379.001 81.434 378.871 87.415 376.907C96.406 373.956 102.866 368.77 106.561 361.537C109.192 356.388 109.576 354.596 109.552 347.566C109.531 341.262 109.052 338.607 107.361 335.406C104.555 330.097 99.147 325.401 94.096 323.888C91.886 323.226 90.084 322.418 90.09 322.093C90.097 321.767 91.973 320.604 94.261 319.507C98.805 317.329 103.311 311.857 105.15 306.285C105.834 304.212 106.127 299.658 105.853 295.375C105.269 286.285 101.814 280.043 94.727 275.278C86.511 269.754 85.477 269.624 46.829 269.251L11.079 268.907V323.954ZM116.527 324.001L116.579 379H131.579H146.579L146.74 324.001L146.9 269.001H131.688H116.476L116.527 324.001ZM274.079 323.978V379.001H287.579H301.079L301.09 342.751L301.101 306.501L306.36 316.001C309.252 321.226 318.109 337.539 326.042 352.251L340.465 379.001H357.772H375.079V324.001V269.001H361.493H347.908L348.243 305.501C348.428 325.577 348.508 342.002 348.421 342.001C348.165 342.001 325.844 300.479 315.092 280.001L309.579 269.501L291.829 269.228L274.079 268.955V323.978ZM388.079 324.001V379.001H403.079H418.079V324.001V269.001H403.079H388.079V324.001ZM74.164 293.767C79.676 299.942 77.192 308.718 69.275 311.035C67.222 311.635 60.245 311.979 53.579 311.809L41.579 311.501L41.294 300.678L41.01 289.856L56.129 290.178L71.248 290.501L74.164 293.767ZM223.366 293.627C228.604 297.297 233.625 305.497 235.159 312.884C235.814 316.039 236.115 322.508 235.847 327.643C234.974 344.335 228.104 354.285 215.505 357.105C206.616 359.094 199.845 357.097 193.579 350.639C187.393 344.263 185.06 338.254 184.353 326.882C183.293 309.841 189.27 296.406 200.079 291.534C202.591 290.402 205.778 290.058 211.366 290.315C218.048 290.624 219.752 291.094 223.366 293.627ZM72.533 333.417C77.11 335.33 79.409 339.116 79.326 344.604C79.174 354.699 74.678 357.001 55.111 357.001H41.079V344.501V332.001H55.111C64.954 332.001 70.155 332.424 72.533 333.417Z" fill="black" fill-opacity="0.5"/>
<defs>
<filter id="filter0_d_841_1352" x="0" y="0" width="539.807" height="381.984" filterUnits="userSpaceOnUse" color-interpolation-filters="sRGB">
<feFlood flood-opacity="0" result="BackgroundImageFix"/>
<feColorMatrix in="SourceAlpha" type="matrix" values="0 0 0 0 0 0 0 0 0 0 0 0 0 0 0 0 0 0 127 0" result="hardAlpha"/>
<feOffset dy="4"/>
<feGaussianBlur stdDeviation="2"/>
<feComposite in2="hardAlpha" operator="out"/>
<feColorMatrix type="matrix" values="0 0 0 0 0 0 0 0 0 0 0 0 0 0 0 0 0 0 0.25 0"/>
<feBlend mode="normal" in2="BackgroundImageFix" result="effect1_dropShadow_841_1352"/>
<feBlend mode="normal" in="SourceGraphic" in2="effect1_dropShadow_841_1352" result="shape"/>
</filter>
</defs>
</svg>
