<svg width="180" height="180" viewBox="0 0 180 180" fill="none" xmlns="http://www.w3.org/2000/svg">
  <!-- Baseball with transparent background -->
  <circle cx="90" cy="90" r="85" fill="#F5F5F5" stroke="#CC0000" stroke-width="3"/>

  <!-- Left stitching curve -->
  <path d="M45 40 Q30 90 45 140" fill="none" stroke="#CC0000" stroke-width="4" stroke-linecap="round"/>

  <!-- Left stitch marks -->
  <path d="M42 48 L52 55" stroke="#CC0000" stroke-width="3" stroke-linecap="round"/>
  <path d="M38 62 L48 68" stroke="#CC0000" stroke-width="3" stroke-linecap="round"/>
  <path d="M35 77 L45 82" stroke="#CC0000" stroke-width="3" stroke-linecap="round"/>
  <path d="M34 92 L44 95" stroke="#CC0000" stroke-width="3" stroke-linecap="round"/>
  <path d="M35 107 L45 103" stroke="#CC0000" stroke-width="3" stroke-linecap="round"/>
  <path d="M38 122 L48 117" stroke="#CC0000" stroke-width="3" stroke-linecap="round"/>
  <path d="M42 136 L52 130" stroke="#CC0000" stroke-width="3" stroke-linecap="round"/>

  <!-- Right stitching curve -->
  <path d="M135 40 Q150 90 135 140" fill="none" stroke="#CC0000" stroke-width="4" stroke-linecap="round"/>

  <!-- Right stitch marks -->
  <path d="M138 48 L128 55" stroke="#CC0000" stroke-width="3" stroke-linecap="round"/>
  <path d="M142 62 L132 68" stroke="#CC0000" stroke-width="3" stroke-linecap="round"/>
  <path d="M145 77 L135 82" stroke="#CC0000" stroke-width="3" stroke-linecap="round"/>
  <path d="M146 92 L136 95" stroke="#CC0000" stroke-width="3" stroke-linecap="round"/>
  <path d="M145 107 L135 103" stroke="#CC0000" stroke-width="3" stroke-linecap="round"/>
  <path d="M142 122 L132 117" stroke="#CC0000" stroke-width="3" stroke-linecap="round"/>
  <path d="M138 136 L128 130" stroke="#CC0000" stroke-width="3" stroke-linecap="round"/>
</svg>
